<svg width="331" height="95" color="blue-600" viewBox="0 0 331 95" fill="none" xmlns="http://www.w3.org/2000/svg">
<path d="M69.2604 6.31401C66.7206 3.77427 62.5492 3.96089 60.2464 6.71728L49.8452 19.167L56.4076 25.7294L68.8573 15.328C71.6133 13.0251 71.7999 8.8536 69.2604 6.31401Z" stroke="blue" stroke-width="2" stroke-miterlimit="10" stroke-linecap="round" stroke-linejoin="round"/>
<path d="M73.9029 27.605V60.7532C73.9029 66.1243 69.5492 70.4796 64.178 70.4796H55.1843C60.5555 70.4796 64.9092 66.1243 64.9092 60.7532V27.605H73.9029Z" stroke="blue" stroke-width="2" stroke-miterlimit="10" stroke-linecap="round" stroke-linejoin="round"/>
<path d="M13.0085 22.448C14.6245 22.448 15.9346 21.138 15.9346 19.5219C15.9346 17.9057 14.6245 16.5957 13.0085 16.5957C11.3924 16.5957 10.0823 17.9057 10.0823 19.5219C10.0823 21.138 11.3924 22.448 13.0085 22.448Z" stroke="blue" stroke-width="2" stroke-miterlimit="10" stroke-linecap="round" stroke-linejoin="round"/>
<path d="M23.3432 22.448C24.9591 22.448 26.2693 21.138 26.2693 19.5219C26.2693 17.9057 24.9591 16.5957 23.3432 16.5957C21.727 16.5957 20.417 17.9057 20.417 19.5219C20.417 21.138 21.727 22.448 23.3432 22.448Z" stroke="blue" stroke-width="2" stroke-miterlimit="10" stroke-linecap="round" stroke-linejoin="round"/>
<path d="M33.6778 22.448C35.2937 22.448 36.6039 21.138 36.6039 19.5219C36.6039 17.9057 35.2937 16.5957 33.6778 16.5957C32.0616 16.5957 30.7515 17.9057 30.7515 19.5219C30.7515 21.138 32.0616 22.448 33.6778 22.448Z" stroke="blue" stroke-width="2" stroke-miterlimit="10" stroke-linecap="round" stroke-linejoin="round"/>
<path d="M49.8453 19.1667L56.2503 11.5004C55.8996 11.4622 55.5438 11.4409 55.1828 11.4409H10.825C5.45391 11.4409 1.09863 15.7947 1.09863 21.1673V27.6044H37.8528C40.2049 24.7458 40.8173 21.0068 49.8453 19.1667Z" stroke="blue" stroke-width="2" stroke-miterlimit="10" stroke-linecap="round" stroke-linejoin="round"/>
<path d="M56.409 25.7281C56.2789 26.3797 56.1132 27.0044 55.9167 27.6034H64.9092V21.1663C64.9092 20.3709 64.8116 19.5986 64.6315 18.8586L56.409 25.7281Z" stroke="blue" stroke-width="2" stroke-miterlimit="10" stroke-linecap="round" stroke-linejoin="round"/>
<path d="M70.2858 13.6003C69.9312 14.2398 69.4548 14.8272 68.857 15.3266L64.6299 18.8584C64.8099 19.5984 64.9075 20.3706 64.9075 21.166V27.6032H73.9012V21.166C73.9012 18.1091 72.4904 15.3833 70.2858 13.6003Z" stroke="blue" stroke-width="2" stroke-miterlimit="10" stroke-linecap="round" stroke-linejoin="round"/>
<path d="M55.9151 27.605C53.343 35.448 45.3297 38.6858 38.1957 34.7311C35.821 33.4146 35.3606 30.179 37.272 28.2506C37.4792 28.0415 37.6711 27.8258 37.8528 27.605H1.09863V60.7532C1.09863 66.1243 5.45391 70.4796 10.825 70.4796H55.1828C60.554 70.4796 64.9078 66.1243 64.9078 60.7532V27.605H55.9151Z" stroke="blue" stroke-width="2" stroke-miterlimit="10" stroke-linecap="round" stroke-linejoin="round"/>
<path d="M49.8459 19.167C40.1205 21.1492 40.1619 25.3352 37.2728 28.2501C35.3615 30.1787 35.8217 33.4141 38.1964 34.7307C45.8752 38.9876 54.574 34.9123 56.4082 25.7294L49.8459 19.167Z" stroke="blue" stroke-width="2" stroke-miterlimit="10" stroke-linecap="round" stroke-linejoin="round"/>
<path d="M24.9141 41.6597H13.8417C11.7655 41.6597 10.0823 43.3429 10.0823 45.4192V56.4916C10.0823 58.5678 11.7655 60.251 13.8417 60.251H24.9141C26.9904 60.251 28.6736 58.5678 28.6736 56.4916V45.4192C28.6736 43.3429 26.9904 41.6597 24.9141 41.6597Z" stroke="blue" stroke-width="2" stroke-miterlimit="10" stroke-linecap="round" stroke-linejoin="round"/>
<path d="M53.4018 42.2483H37.5253C35.8654 42.2483 34.5198 43.5939 34.5198 45.2538C34.5198 46.9138 35.8654 48.2594 37.5253 48.2594H53.4019C55.0619 48.2594 56.4075 46.9138 56.4075 45.2538C56.4075 43.5939 55.0618 42.2483 53.4018 42.2483Z" stroke="blue" stroke-width="2" stroke-miterlimit="10" stroke-linecap="round" stroke-linejoin="round"/>
<path d="M53.4018 53.6514H37.5253C35.8654 53.6514 34.5198 54.997 34.5198 56.6569C34.5198 58.3169 35.8654 59.6625 37.5253 59.6625H53.4019C55.0619 59.6625 56.4075 58.3169 56.4075 56.6569C56.4075 54.9971 55.0618 53.6514 53.4018 53.6514Z" stroke="blue" stroke-width="2" stroke-miterlimit="10" stroke-linecap="round" stroke-linejoin="round"/>
</svg>
